<svg width="24" height="24" viewBox="0 0 24 24" fill="none" xmlns="http://www.w3.org/2000/svg">
<path d="M6.12938 8.23567C5.95687 7.42092 5.95687 6.57908 6.12938 5.76433C6.7952 5.84231 7.37704 5.62217 7.56659 5.16389C7.75674 4.70502 7.50181 4.13817 6.97515 3.72248C7.42925 3.02447 8.02447 2.42925 8.72248 1.97515C9.13757 2.50121 9.70502 2.75674 10.1639 2.56659C10.6228 2.37644 10.8429 1.7952 10.7643 1.12938C11.5791 0.956873 12.4209 0.956873 13.2357 1.12938C13.1577 1.7952 13.3778 2.37704 13.8361 2.56659C14.295 2.75674 14.8618 2.50181 15.2775 1.97515C15.9755 2.42925 16.5707 3.02447 17.0248 3.72248C16.4988 4.13757 16.2433 4.70502 16.4334 5.16389C16.6236 5.62277 17.2048 5.84291 17.8706 5.76433C18.0431 6.57908 18.0431 7.42092 17.8706 8.23567C17.2048 8.15769 16.623 8.37783 16.4334 8.8361C16.2433 9.29498 16.4982 9.86183 17.0248 10.2775C16.5707 10.9755 15.9755 11.5707 15.2775 12.0248C14.8624 11.4988 14.295 11.2433 13.8361 11.4334C13.3772 11.6236 13.1571 12.2048 13.2357 12.8706C12.4209 13.0431 11.5791 13.0431 10.7643 12.8706C10.8423 12.2048 10.6222 11.623 10.1639 11.4334C9.70502 11.2433 9.13817 11.4982 8.72248 12.0248C8.02447 11.5707 7.42925 10.9755 6.97515 10.2775C7.50121 9.86243 7.75674 9.29498 7.56659 8.8361C7.37644 8.37723 6.7952 8.15709 6.12938 8.23567V8.23567ZM7.20129 7.12597C7.86111 7.30892 8.40517 7.727 8.67509 8.37723C8.94442 9.02805 8.85505 9.70887 8.51794 10.3039C8.57552 10.3651 8.63491 10.4245 8.69609 10.4821C9.29173 10.145 9.97195 10.0562 10.6228 10.3249C11.273 10.5948 11.6911 11.1389 11.874 11.7987C11.958 11.8011 12.042 11.8011 12.126 11.7987C12.3089 11.1389 12.727 10.5948 13.3772 10.3249C14.0281 10.0556 14.7089 10.145 15.3039 10.4821C15.3651 10.4245 15.4245 10.3651 15.4821 10.3039C15.145 9.70827 15.0562 9.02805 15.3249 8.37723C15.5948 7.727 16.1389 7.30892 16.7987 7.12597C16.8011 7.04199 16.8011 6.95801 16.7987 6.87403C16.1389 6.69108 15.5948 6.273 15.3249 5.62277C15.0556 4.97195 15.145 4.29113 15.4821 3.69609C15.4243 3.63514 15.3649 3.57574 15.3039 3.51794C14.7083 3.85505 14.0281 3.94382 13.3772 3.67509C12.727 3.40517 12.3089 2.86111 12.126 2.20129C12.042 2.19907 11.958 2.19907 11.874 2.20129C11.6911 2.86111 11.273 3.40517 10.6228 3.67509C9.97195 3.94442 9.29113 3.85505 8.69609 3.51794C8.63491 3.57552 8.57552 3.63491 8.51794 3.69609C8.85505 4.29173 8.94382 4.97195 8.67509 5.62277C8.40517 6.273 7.86111 6.69108 7.20129 6.87403C7.19889 6.95801 7.19889 7.04199 7.20129 7.12597V7.12597ZM12 8.79951C11.5227 8.79951 11.065 8.60992 10.7275 8.27245C10.3901 7.93497 10.2005 7.47726 10.2005 7C10.2005 6.52274 10.3901 6.06502 10.7275 5.72755C11.065 5.39007 11.5227 5.20048 12 5.20048C12.4773 5.20048 12.935 5.39007 13.2724 5.72755C13.6099 6.06502 13.7995 6.52274 13.7995 7C13.7995 7.47726 13.6099 7.93497 13.2724 8.27245C12.935 8.60992 12.4773 8.79951 12 8.79951ZM12 7.59984C12.1591 7.59984 12.3117 7.53664 12.4241 7.42415C12.5366 7.31166 12.5998 7.15909 12.5998 7C12.5998 6.84091 12.5366 6.68834 12.4241 6.57585C12.3117 6.46336 12.1591 6.40016 12 6.40016C11.8409 6.40016 11.6883 6.46336 11.5758 6.57585C11.4634 6.68834 11.4002 6.84091 11.4002 7C11.4002 7.15909 11.4634 7.31166 11.5758 7.42415C11.6883 7.53664 11.8409 7.59984 12 7.59984V7.59984Z" fill="black"/>
<g clip-path="url(#clip0_403_330)">
<path d="M4.01675 21.4822C4.01675 19.3604 4.85961 17.3256 6.3599 15.8253C7.86019 14.325 9.89502 13.4822 12.0168 13.4822C14.1385 13.4822 16.1733 14.325 17.6736 15.8253C19.1739 17.3256 20.0168 19.3604 20.0168 21.4822H18.0168C18.0168 19.8909 17.3846 18.3648 16.2594 17.2395C15.1342 16.1143 13.6081 15.4822 12.0168 15.4822C10.4255 15.4822 8.89933 16.1143 7.77411 17.2395C6.6489 18.3648 6.01675 19.8909 6.01675 21.4822H4.01675Z" fill="black"/>
</g>
<defs>
<clipPath id="clip0_403_330">
<rect width="24" height="24" fill="white"/>
</clipPath>
</defs>
</svg>
