<svg width="500" height="400" viewBox="0 0 500 400" fill="none" xmlns="http://www.w3.org/2000/svg">
<g clip-path="url(#clip0_4_1300)">
<path d="M131.42 321.432C131.42 321.432 107.277 300.148 75.2832 229.502C43.2896 158.856 55.4668 75.674 112.965 67.674C170.464 59.676 215.112 93.734 215.112 93.734C215.112 93.734 279.242 73.244 330.432 87.256C381.622 101.268 376.584 169.93 376.584 169.93C376.584 169.93 408.864 188.996 422.038 232.314C435.212 275.632 389.892 321.248 389.892 321.248L131.42 321.432Z" fill="#F1D6D6"/>
<path d="M413.492 325.508H112.746C111.082 325.508 109.733 324.16 109.733 322.496V322.412C109.733 320.748 111.082 319.398 112.746 319.398H413.492C415.156 319.398 416.504 320.748 416.504 322.412V322.496C416.504 324.16 415.156 325.508 413.492 325.508Z" fill="#669DC5"/>
<path d="M353.17 281.344H147.702C144.142 281.344 141.257 278.652 141.257 275.332L137.348 134.666C137.348 131.344 140.234 128.652 143.793 128.652H359.034C362.594 128.652 365.48 131.344 365.48 134.666L359.616 275.332C359.616 278.652 356.73 281.344 353.17 281.344Z" fill="#EAE9F3"/>
<path d="M362.976 129.908C363.66 130.862 364.06 132.01 364.06 133.244L358.196 273.912C358.196 277.232 355.31 279.924 351.75 279.924H146.282C144.797 279.924 143.43 279.456 142.34 278.668C143.496 280.282 145.466 281.344 147.702 281.344H353.17C356.73 281.344 359.616 278.652 359.616 275.332L365.48 134.664C365.48 132.73 364.498 131.008 362.976 129.908Z" fill="#D6E6F1"/>
<path d="M150.192 264.878L146.284 138.788C146.284 135.466 149.169 132.774 152.729 132.774H352.344C355.904 132.774 358.79 135.466 358.79 138.788L352.926 264.878C352.926 268.198 350.042 270.89 346.482 270.89H156.638C153.078 270.89 150.192 268.198 150.192 264.878Z" fill="#669DC5"/>
<path d="M270.956 237.856C249.774 237.856 224.136 230.628 194.416 226.08C191.328 225.608 188.35 225.372 185.484 225.348L170.068 159.238C169.989 158.9 169.687 158.672 169.354 158.672C169.299 158.672 169.243 158.678 169.187 158.69C168.793 158.782 168.548 159.176 168.639 159.572L183.98 225.356C173.478 225.544 164.482 228.608 156.828 233.312C156.801 233.234 156.726 233.184 156.637 233.178C156.529 233.182 156.445 233.272 156.448 233.38L156.453 233.544C154.948 234.484 153.495 235.488 152.094 236.546C151.159 235.65 150.065 234.92 148.859 234.402L145.991 141.88C145.991 141.214 146.106 140.574 146.32 139.976C147.174 137.588 149.59 135.868 152.436 135.868H261.588C261.612 136.982 261.758 137.888 262.054 138.528C262.844 140.228 264.23 141.724 265.922 143.01C265.93 143.164 265.936 143.322 265.944 143.484H265.688C265.58 143.484 265.492 143.572 265.492 143.68C265.492 143.788 265.58 143.876 265.688 143.876H265.958C266.058 146.45 266.098 149.826 265.768 151.852C265.182 155.466 262.936 158.2 262.936 158.2L274.948 215.232L286.276 158.492C286.276 158.492 283.464 156.77 282.664 151.852C282.586 151.378 282.516 150.834 282.454 150.234C282.4 149.724 282.352 149.174 282.308 148.598C282.758 148.602 283.236 148.606 283.736 148.606C288.152 148.606 294.33 148.262 298.286 144.49C301.372 141.546 302.468 138.448 302.704 135.868H352.052C355.612 135.868 358.496 138.56 358.496 141.88L356.652 181.556C351.48 184.02 346.594 186.606 342.11 189.31L318.562 186.462C307.378 174.95 295.436 163.122 295.436 163.122C295.436 163.122 293.424 185.446 296.466 202.448C296.886 204.806 300.67 206.44 305.058 208.246L291.046 234.944C284.878 237.018 278.176 237.856 270.956 237.856ZM156.358 223.808C156.354 223.808 156.35 223.808 156.346 223.808C156.239 223.812 156.154 223.902 156.158 224.01L156.303 228.694C156.306 228.8 156.393 228.884 156.498 228.884H156.504C156.612 228.88 156.696 228.79 156.693 228.682L156.548 223.998C156.545 223.894 156.468 223.808 156.358 223.808ZM156.059 214.438C156.058 214.438 156.057 214.438 156.056 214.438C155.948 214.44 155.864 214.532 155.867 214.638L156.012 219.324C156.015 219.43 156.102 219.514 156.207 219.514H156.213C156.321 219.51 156.406 219.42 156.403 219.312L156.257 214.626C156.254 214.52 156.173 214.438 156.059 214.438ZM155.769 205.066C155.768 205.066 155.767 205.066 155.766 205.068C155.658 205.07 155.573 205.16 155.577 205.268L155.721 209.954C155.725 210.06 155.812 210.144 155.917 210.144H155.923C156.031 210.14 156.115 210.05 156.112 209.942L155.967 205.256C155.963 205.15 155.887 205.066 155.769 205.066ZM155.475 195.696C155.367 195.7 155.283 195.79 155.286 195.898L155.431 200.584C155.434 200.688 155.521 200.772 155.626 200.772H155.632C155.74 200.77 155.825 200.68 155.822 200.572L155.677 195.886C155.673 195.778 155.587 195.696 155.475 195.696ZM155.203 186.326C155.197 186.326 155.191 186.326 155.185 186.326C155.077 186.33 154.992 186.42 154.995 186.528L155.141 191.212C155.144 191.318 155.231 191.402 155.336 191.402H155.342C155.45 191.398 155.534 191.308 155.531 191.2L155.386 186.516C155.383 186.414 155.304 186.326 155.203 186.326ZM348.876 180.416C348.768 180.416 348.684 180.496 348.68 180.602L348.462 185.284C348.456 185.392 348.54 185.484 348.648 185.488H348.658C348.76 185.488 348.848 185.406 348.852 185.302L349.07 180.62C349.074 180.512 348.992 180.42 348.884 180.416C348.88 180.416 348.878 180.416 348.876 180.416ZM154.894 176.956C154.786 176.958 154.702 177.048 154.705 177.156L154.85 181.842C154.854 181.948 154.94 182.032 155.045 182.032H155.051C155.159 182.028 155.244 181.938 155.241 181.83L155.095 177.144C155.092 177.036 155.003 176.956 154.894 176.956ZM349.31 171.05C349.206 171.05 349.12 171.132 349.116 171.236L348.898 175.92C348.892 176.028 348.976 176.118 349.084 176.124H349.092C349.196 176.124 349.282 176.042 349.288 175.938L349.506 171.256C349.51 171.148 349.428 171.056 349.32 171.05C349.316 171.05 349.312 171.05 349.31 171.05ZM154.608 167.586C154.606 167.586 154.605 167.586 154.604 167.586C154.496 167.588 154.411 167.678 154.414 167.786L154.56 172.472C154.563 172.578 154.65 172.662 154.755 172.662L154.761 172.66C154.869 172.658 154.953 172.568 154.95 172.46L154.805 167.774C154.802 167.668 154.712 167.586 154.608 167.586ZM349.742 161.686C349.646 161.686 349.556 161.768 349.55 161.872L349.334 166.554C349.328 166.662 349.412 166.754 349.52 166.758H349.528C349.632 166.758 349.718 166.678 349.724 166.572L349.94 161.89C349.946 161.782 349.862 161.692 349.754 161.686C349.75 161.686 349.746 161.686 349.742 161.686ZM154.323 158.214C154.319 158.214 154.316 158.214 154.313 158.214C154.205 158.218 154.121 158.308 154.124 158.416L154.269 163.102C154.272 163.206 154.359 163.29 154.464 163.29H154.471C154.578 163.286 154.663 163.196 154.66 163.088L154.515 158.404C154.511 158.298 154.434 158.214 154.323 158.214ZM350.176 152.32C350.072 152.32 349.99 152.404 349.986 152.508L349.768 157.19C349.764 157.298 349.846 157.388 349.954 157.394H349.964C350.068 157.394 350.154 157.312 350.158 157.208L350.376 152.526C350.382 152.418 350.298 152.326 350.19 152.322C350.186 152.322 350.18 152.32 350.176 152.32ZM154.038 148.844C154.033 148.844 154.028 148.844 154.023 148.844C153.915 148.848 153.83 148.938 153.833 149.046L153.979 153.73C153.982 153.836 154.069 153.92 154.174 153.92H154.18C154.288 153.916 154.373 153.826 154.369 153.718L154.224 149.034C154.221 148.93 154.136 148.844 154.038 148.844ZM350.062 143.484C349.956 143.484 349.868 143.572 349.868 143.68C349.868 143.788 349.956 143.876 350.062 143.876H350.388L350.204 147.824C350.198 147.932 350.282 148.024 350.39 148.028L350.4 148.03C350.502 148.03 350.59 147.948 350.594 147.842L350.796 143.484H350.062ZM153.661 143.484L153.688 144.36C153.692 144.466 153.779 144.55 153.884 144.55H153.89C153.997 144.546 154.082 144.456 154.079 144.348L154.064 143.876H157.876C157.984 143.876 158.071 143.788 158.071 143.68C158.071 143.572 157.984 143.484 157.876 143.484H153.661ZM340.688 143.484C340.58 143.484 340.492 143.572 340.492 143.68C340.492 143.788 340.58 143.876 340.688 143.876H345.376C345.484 143.876 345.57 143.788 345.57 143.68C345.57 143.572 345.484 143.484 345.376 143.484H340.688ZM331.312 143.484C331.206 143.484 331.118 143.572 331.118 143.68C331.118 143.788 331.206 143.876 331.312 143.876H336C336.108 143.876 336.196 143.788 336.196 143.68C336.196 143.572 336.108 143.484 336 143.484H331.312ZM321.938 143.484C321.83 143.484 321.742 143.572 321.742 143.68C321.742 143.788 321.83 143.876 321.938 143.876H326.626C326.734 143.876 326.82 143.788 326.82 143.68C326.82 143.572 326.734 143.484 326.626 143.484H321.938ZM312.562 143.484C312.456 143.484 312.368 143.572 312.368 143.68C312.368 143.788 312.456 143.876 312.562 143.876H317.25C317.358 143.876 317.446 143.788 317.446 143.68C317.446 143.572 317.358 143.484 317.25 143.484H312.562ZM303.188 143.484C303.08 143.484 302.992 143.572 302.992 143.68C302.992 143.788 303.08 143.876 303.188 143.876H307.876C307.984 143.876 308.07 143.788 308.07 143.68C308.07 143.572 307.984 143.484 307.876 143.484H303.188ZM256.312 143.484C256.204 143.484 256.118 143.572 256.118 143.68C256.118 143.788 256.204 143.876 256.312 143.876H261C261.108 143.876 261.196 143.788 261.196 143.68C261.196 143.572 261.108 143.484 261 143.484H256.312ZM246.938 143.484C246.83 143.484 246.742 143.572 246.742 143.68C246.742 143.788 246.83 143.876 246.938 143.876H251.626C251.734 143.876 251.82 143.788 251.82 143.68C251.82 143.572 251.734 143.484 251.626 143.484H246.938ZM237.564 143.484C237.456 143.484 237.368 143.572 237.368 143.68C237.368 143.788 237.456 143.876 237.564 143.876H242.25C242.358 143.876 242.446 143.788 242.446 143.68C242.446 143.572 242.358 143.484 242.25 143.484H237.564ZM228.188 143.484C228.08 143.484 227.992 143.572 227.992 143.68C227.992 143.788 228.08 143.876 228.188 143.876H232.876C232.984 143.876 233.07 143.788 233.07 143.68C233.07 143.572 232.984 143.484 232.876 143.484H228.188ZM218.814 143.484C218.706 143.484 218.618 143.572 218.618 143.68C218.618 143.788 218.706 143.876 218.814 143.876H223.5C223.608 143.876 223.696 143.788 223.696 143.68C223.696 143.572 223.608 143.484 223.5 143.484H218.814ZM209.438 143.484C209.33 143.484 209.242 143.572 209.242 143.68C209.242 143.788 209.33 143.876 209.438 143.876H214.126C214.234 143.876 214.32 143.788 214.32 143.68C214.32 143.572 214.234 143.484 214.126 143.484H209.438ZM200.064 143.484C199.955 143.484 199.868 143.572 199.868 143.68C199.868 143.788 199.955 143.876 200.064 143.876H204.75C204.858 143.876 204.946 143.788 204.946 143.68C204.946 143.572 204.858 143.484 204.75 143.484H200.064ZM190.688 143.484C190.58 143.484 190.493 143.572 190.493 143.68C190.493 143.788 190.58 143.876 190.688 143.876H195.376C195.484 143.876 195.571 143.788 195.571 143.68C195.571 143.572 195.484 143.484 195.376 143.484H190.688ZM181.313 143.484C181.205 143.484 181.118 143.572 181.118 143.68C181.118 143.788 181.205 143.876 181.313 143.876H186.001C186.109 143.876 186.196 143.788 186.196 143.68C186.196 143.572 186.109 143.484 186.001 143.484H181.313ZM171.938 143.484C171.83 143.484 171.743 143.572 171.743 143.68C171.743 143.788 171.83 143.876 171.938 143.876H176.626C176.734 143.876 176.821 143.788 176.821 143.68C176.821 143.572 176.734 143.484 176.626 143.484H171.938ZM162.563 143.484C162.455 143.484 162.368 143.572 162.368 143.68C162.368 143.788 162.455 143.876 162.563 143.876H167.251C167.359 143.876 167.446 143.788 167.446 143.68C167.446 143.572 167.359 143.484 167.251 143.484H162.563Z" fill="url(#paint0_linear_4_1300)"/>
<path d="M352.704 266.448L356.074 193.996L352.704 266.448ZM356.212 191.014L356.652 181.556L356.212 191.014Z" fill="url(#paint1_linear_4_1300)"/>
<path d="M167.251 143.876H162.563C162.455 143.876 162.368 143.788 162.368 143.68C162.368 143.572 162.455 143.484 162.563 143.484H167.251C167.359 143.484 167.446 143.572 167.446 143.68C167.446 143.788 167.359 143.876 167.251 143.876ZM176.626 143.876H171.938C171.83 143.876 171.743 143.788 171.743 143.68C171.743 143.572 171.83 143.484 171.938 143.484H176.626C176.734 143.484 176.821 143.572 176.821 143.68C176.821 143.788 176.734 143.876 176.626 143.876ZM186.001 143.876H181.313C181.205 143.876 181.118 143.788 181.118 143.68C181.118 143.572 181.205 143.484 181.313 143.484H186.001C186.109 143.484 186.196 143.572 186.196 143.68C186.196 143.788 186.109 143.876 186.001 143.876ZM195.376 143.876H190.688C190.58 143.876 190.493 143.788 190.493 143.68C190.493 143.572 190.58 143.484 190.688 143.484H195.376C195.484 143.484 195.571 143.572 195.571 143.68C195.571 143.788 195.484 143.876 195.376 143.876ZM204.75 143.876H200.064C199.955 143.876 199.868 143.788 199.868 143.68C199.868 143.572 199.955 143.484 200.064 143.484H204.75C204.858 143.484 204.946 143.572 204.946 143.68C204.946 143.788 204.858 143.876 204.75 143.876ZM214.126 143.876H209.438C209.33 143.876 209.242 143.788 209.242 143.68C209.242 143.572 209.33 143.484 209.438 143.484H214.126C214.234 143.484 214.32 143.572 214.32 143.68C214.32 143.788 214.234 143.876 214.126 143.876ZM223.5 143.876H218.814C218.706 143.876 218.618 143.788 218.618 143.68C218.618 143.572 218.706 143.484 218.814 143.484H223.5C223.608 143.484 223.696 143.572 223.696 143.68C223.696 143.788 223.608 143.876 223.5 143.876ZM232.876 143.876H228.188C228.08 143.876 227.992 143.788 227.992 143.68C227.992 143.572 228.08 143.484 228.188 143.484H232.876C232.984 143.484 233.07 143.572 233.07 143.68C233.07 143.788 232.984 143.876 232.876 143.876ZM242.25 143.876H237.564C237.456 143.876 237.368 143.788 237.368 143.68C237.368 143.572 237.456 143.484 237.564 143.484H242.25C242.358 143.484 242.446 143.572 242.446 143.68C242.446 143.788 242.358 143.876 242.25 143.876ZM251.626 143.876H246.938C246.83 143.876 246.742 143.788 246.742 143.68C246.742 143.572 246.83 143.484 246.938 143.484H251.626C251.734 143.484 251.82 143.572 251.82 143.68C251.82 143.788 251.734 143.876 251.626 143.876ZM261 143.876H256.312C256.204 143.876 256.118 143.788 256.118 143.68C256.118 143.572 256.204 143.484 256.312 143.484H261C261.108 143.484 261.196 143.572 261.196 143.68C261.196 143.788 261.108 143.876 261 143.876ZM270.376 143.876H265.688C265.58 143.876 265.492 143.788 265.492 143.68C265.492 143.572 265.58 143.484 265.688 143.484H270.376C270.484 143.484 270.57 143.572 270.57 143.68C270.57 143.788 270.484 143.876 270.376 143.876ZM279.75 143.876H275.062C274.954 143.876 274.868 143.788 274.868 143.68C274.868 143.572 274.954 143.484 275.062 143.484H279.75C279.858 143.484 279.946 143.572 279.946 143.68C279.946 143.788 279.858 143.876 279.75 143.876ZM289.126 143.876H284.438C284.33 143.876 284.242 143.788 284.242 143.68C284.242 143.572 284.33 143.484 284.438 143.484H289.126C289.234 143.484 289.32 143.572 289.32 143.68C289.32 143.788 289.234 143.876 289.126 143.876ZM298.5 143.876H293.812C293.706 143.876 293.618 143.788 293.618 143.68C293.618 143.572 293.706 143.484 293.812 143.484H298.5C298.608 143.484 298.696 143.572 298.696 143.68C298.696 143.788 298.608 143.876 298.5 143.876ZM307.876 143.876H303.188C303.08 143.876 302.992 143.788 302.992 143.68C302.992 143.572 303.08 143.484 303.188 143.484H307.876C307.984 143.484 308.07 143.572 308.07 143.68C308.07 143.788 307.984 143.876 307.876 143.876ZM317.25 143.876H312.562C312.456 143.876 312.368 143.788 312.368 143.68C312.368 143.572 312.456 143.484 312.562 143.484H317.25C317.358 143.484 317.446 143.572 317.446 143.68C317.446 143.788 317.358 143.876 317.25 143.876ZM326.626 143.876H321.938C321.83 143.876 321.742 143.788 321.742 143.68C321.742 143.572 321.83 143.484 321.938 143.484H326.626C326.734 143.484 326.82 143.572 326.82 143.68C326.82 143.788 326.734 143.876 326.626 143.876ZM336 143.876H331.312C331.206 143.876 331.118 143.788 331.118 143.68C331.118 143.572 331.206 143.484 331.312 143.484H336C336.108 143.484 336.196 143.572 336.196 143.68C336.196 143.788 336.108 143.876 336 143.876ZM345.376 143.876H340.688C340.58 143.876 340.492 143.788 340.492 143.68C340.492 143.572 340.58 143.484 340.688 143.484H345.376C345.484 143.484 345.57 143.572 345.57 143.68C345.57 143.788 345.484 143.876 345.376 143.876ZM153.884 144.55C153.779 144.55 153.692 144.466 153.688 144.36L153.661 143.484H157.876C157.984 143.484 158.071 143.572 158.071 143.68C158.071 143.788 157.984 143.876 157.876 143.876H154.064L154.079 144.348C154.082 144.456 153.997 144.546 153.89 144.55H153.884ZM350.4 148.03L350.39 148.028C350.282 148.024 350.198 147.932 350.204 147.824L350.388 143.876H350.062C349.956 143.876 349.868 143.788 349.868 143.68C349.868 143.572 349.956 143.484 350.062 143.484H350.796L350.594 147.842C350.59 147.948 350.502 148.03 350.4 148.03ZM154.174 153.92C154.069 153.92 153.982 153.836 153.979 153.73L153.833 149.046C153.83 148.938 153.915 148.848 154.023 148.844C154.127 148.834 154.221 148.926 154.224 149.034L154.369 153.718C154.373 153.826 154.288 153.916 154.18 153.92H154.174ZM349.964 157.394H349.954C349.846 157.388 349.764 157.298 349.768 157.19L349.986 152.508C349.99 152.4 350.08 152.312 350.19 152.322C350.298 152.326 350.382 152.418 350.376 152.526L350.158 157.208C350.154 157.312 350.068 157.394 349.964 157.394ZM154.464 163.29C154.359 163.29 154.272 163.206 154.269 163.102L154.124 158.416C154.121 158.308 154.205 158.218 154.313 158.214C154.43 158.21 154.511 158.296 154.515 158.404L154.66 163.088C154.663 163.196 154.578 163.286 154.471 163.29H154.464ZM349.528 166.758H349.52C349.412 166.754 349.328 166.662 349.334 166.554L349.55 161.872C349.556 161.764 349.652 161.678 349.754 161.686C349.862 161.692 349.946 161.782 349.94 161.89L349.724 166.572C349.718 166.678 349.632 166.758 349.528 166.758ZM154.755 172.662C154.65 172.662 154.563 172.578 154.56 172.472L154.414 167.786C154.411 167.678 154.496 167.588 154.604 167.586C154.709 167.582 154.802 167.666 154.805 167.774L154.95 172.46C154.953 172.568 154.869 172.658 154.761 172.66L154.755 172.662ZM349.092 176.124H349.084C348.976 176.118 348.892 176.028 348.898 175.92L349.116 171.236C349.12 171.13 349.212 171.046 349.32 171.05C349.428 171.056 349.51 171.148 349.506 171.256L349.288 175.938C349.282 176.042 349.196 176.124 349.092 176.124ZM155.045 182.032C154.94 182.032 154.854 181.948 154.85 181.842L154.705 177.156C154.702 177.048 154.786 176.958 154.894 176.956C155.003 176.956 155.092 177.036 155.095 177.144L155.241 181.83C155.244 181.938 155.159 182.028 155.051 182.032H155.045ZM348.658 185.488H348.648C348.54 185.484 348.456 185.392 348.462 185.284L348.68 180.602C348.684 180.494 348.772 180.412 348.884 180.416C348.992 180.42 349.074 180.512 349.07 180.62L348.852 185.302C348.848 185.406 348.76 185.488 348.658 185.488ZM155.336 191.402C155.231 191.402 155.144 191.318 155.141 191.212L154.995 186.528C154.992 186.42 155.077 186.33 155.185 186.326C155.294 186.314 155.383 186.408 155.386 186.516L155.531 191.2C155.534 191.308 155.45 191.398 155.342 191.402H155.336ZM348.222 194.854H348.212C348.104 194.848 348.022 194.756 348.026 194.65L348.244 189.966C348.25 189.858 348.356 189.776 348.448 189.78C348.556 189.786 348.64 189.878 348.634 189.984L348.416 194.668C348.412 194.772 348.326 194.854 348.222 194.854ZM155.626 200.772C155.521 200.772 155.434 200.688 155.431 200.584L155.286 195.898C155.283 195.79 155.367 195.7 155.475 195.696C155.587 195.696 155.673 195.778 155.677 195.886L155.822 200.572C155.825 200.68 155.74 200.77 155.632 200.772H155.626ZM347.786 204.218H347.776C347.67 204.214 347.586 204.122 347.59 204.014L347.808 199.332C347.814 199.224 347.904 199.136 348.012 199.146C348.12 199.15 348.204 199.242 348.198 199.35L347.98 204.032C347.976 204.136 347.89 204.218 347.786 204.218ZM155.917 210.144C155.812 210.144 155.725 210.06 155.721 209.954L155.577 205.268C155.573 205.16 155.658 205.07 155.766 205.068C155.885 205.066 155.963 205.148 155.967 205.256L156.112 209.942C156.115 210.05 156.031 210.14 155.923 210.144H155.917ZM347.35 213.584H347.342C347.234 213.578 347.15 213.486 347.156 213.378L347.374 208.696C347.378 208.588 347.476 208.496 347.578 208.51C347.686 208.516 347.768 208.606 347.764 208.714L347.546 213.398C347.54 213.502 347.454 213.584 347.35 213.584ZM156.207 219.514C156.102 219.514 156.015 219.43 156.012 219.324L155.867 214.638C155.864 214.532 155.948 214.44 156.056 214.438C156.171 214.436 156.254 214.518 156.257 214.626L156.403 219.312C156.406 219.42 156.321 219.51 156.213 219.514H156.207ZM346.916 222.948H346.906C346.798 222.942 346.714 222.852 346.72 222.744L346.938 218.062C346.942 217.954 347.036 217.862 347.142 217.876C347.25 217.88 347.334 217.972 347.328 218.08L347.11 222.762C347.106 222.866 347.018 222.948 346.916 222.948ZM156.498 228.884C156.393 228.884 156.306 228.8 156.303 228.694L156.158 224.01C156.154 223.902 156.239 223.812 156.346 223.808C156.463 223.802 156.545 223.89 156.548 223.998L156.693 228.682C156.696 228.79 156.612 228.88 156.504 228.884H156.498ZM346.48 232.314L346.47 232.312C346.364 232.308 346.28 232.216 346.284 232.108L346.502 227.426C346.508 227.318 346.596 227.228 346.706 227.24C346.814 227.246 346.898 227.336 346.892 227.444L346.674 232.128C346.67 232.232 346.584 232.314 346.48 232.314ZM156.788 238.254C156.683 238.254 156.596 238.17 156.593 238.066L156.448 233.38C156.445 233.272 156.529 233.182 156.637 233.178C156.746 233.184 156.835 233.26 156.838 233.368L156.984 238.052C156.987 238.16 156.902 238.25 156.794 238.254H156.788ZM346.044 241.678H346.036C345.928 241.672 345.844 241.582 345.85 241.474L346.068 236.792C346.072 236.684 346.168 236.594 346.272 236.606C346.378 236.61 346.462 236.702 346.458 236.81L346.24 241.492C346.234 241.596 346.148 241.678 346.044 241.678ZM157.079 247.624C156.974 247.624 156.887 247.542 156.884 247.436L156.738 242.75C156.735 242.642 156.82 242.552 156.928 242.55C157.036 242.55 157.125 242.63 157.129 242.738L157.274 247.424C157.277 247.532 157.193 247.622 157.085 247.624H157.079ZM345.61 251.042H345.6C345.492 251.038 345.408 250.946 345.414 250.838L345.632 246.156C345.636 246.048 345.728 245.96 345.836 245.97C345.944 245.976 346.026 246.066 346.022 246.174L345.804 250.856C345.8 250.962 345.712 251.042 345.61 251.042ZM157.369 256.996C157.264 256.996 157.177 256.912 157.174 256.806L157.029 252.12C157.026 252.014 157.11 251.924 157.218 251.92C157.33 251.922 157.416 252.002 157.419 252.108L157.565 256.794C157.568 256.902 157.483 256.992 157.375 256.996H157.369ZM345.174 260.408H345.164C345.056 260.402 344.974 260.312 344.978 260.204L345.196 255.52C345.202 255.414 345.3 255.32 345.4 255.334C345.508 255.34 345.592 255.432 345.586 255.538L345.368 260.222C345.364 260.326 345.278 260.408 345.174 260.408ZM158.674 266.366H157.47L157.319 261.492C157.316 261.384 157.401 261.294 157.509 261.29C157.619 261.294 157.706 261.372 157.71 261.48L157.849 265.976H158.674C158.781 265.976 158.869 266.062 158.869 266.17C158.869 266.278 158.781 266.366 158.674 266.366ZM168.049 266.366H163.361C163.253 266.366 163.166 266.278 163.166 266.17C163.166 266.062 163.253 265.976 163.361 265.976H168.049C168.156 265.976 168.244 266.062 168.244 266.17C168.244 266.278 168.156 266.366 168.049 266.366ZM177.424 266.366H172.736C172.628 266.366 172.541 266.278 172.541 266.17C172.541 266.062 172.628 265.976 172.736 265.976H177.424C177.531 265.976 177.619 266.062 177.619 266.17C177.619 266.278 177.531 266.366 177.424 266.366ZM186.798 266.366H182.111C182.003 266.366 181.916 266.278 181.916 266.17C181.916 266.062 182.003 265.976 182.111 265.976H186.798C186.906 265.976 186.994 266.062 186.994 266.17C186.994 266.278 186.906 266.366 186.798 266.366ZM196.174 266.366H191.486C191.378 266.366 191.291 266.278 191.291 266.17C191.291 266.062 191.378 265.976 191.486 265.976H196.174C196.281 265.976 196.369 266.062 196.369 266.17C196.369 266.278 196.281 266.366 196.174 266.366ZM205.548 266.366H200.862C200.754 266.366 200.666 266.278 200.666 266.17C200.666 266.062 200.754 265.976 200.862 265.976H205.548C205.656 265.976 205.744 266.062 205.744 266.17C205.744 266.278 205.656 266.366 205.548 266.366ZM214.924 266.366H210.236C210.128 266.366 210.04 266.278 210.04 266.17C210.04 266.062 210.128 265.976 210.236 265.976H214.924C215.032 265.976 215.118 266.062 215.118 266.17C215.118 266.278 215.032 266.366 214.924 266.366ZM224.298 266.366H219.61C219.502 266.366 219.416 266.278 219.416 266.17C219.416 266.062 219.502 265.976 219.61 265.976H224.298C224.406 265.976 224.494 266.062 224.494 266.17C224.494 266.278 224.406 266.366 224.298 266.366ZM233.674 266.366H228.986C228.878 266.366 228.79 266.278 228.79 266.17C228.79 266.062 228.878 265.976 228.986 265.976H233.674C233.782 265.976 233.868 266.062 233.868 266.17C233.868 266.278 233.782 266.366 233.674 266.366ZM243.048 266.366H238.36C238.252 266.366 238.166 266.278 238.166 266.17C238.166 266.062 238.252 265.976 238.36 265.976H243.048C243.156 265.976 243.244 266.062 243.244 266.17C243.244 266.278 243.156 266.366 243.048 266.366ZM252.424 266.366H247.736C247.628 266.366 247.54 266.278 247.54 266.17C247.54 266.062 247.628 265.976 247.736 265.976H252.424C252.532 265.976 252.618 266.062 252.618 266.17C252.618 266.278 252.532 266.366 252.424 266.366ZM261.798 266.366H257.11C257.002 266.366 256.916 266.278 256.916 266.17C256.916 266.062 257.002 265.976 257.11 265.976H261.798C261.906 265.976 261.994 266.062 261.994 266.17C261.994 266.278 261.906 266.366 261.798 266.366ZM271.174 266.366H266.486C266.378 266.366 266.29 266.278 266.29 266.17C266.29 266.062 266.378 265.976 266.486 265.976H271.174C271.282 265.976 271.368 266.062 271.368 266.17C271.368 266.278 271.282 266.366 271.174 266.366ZM280.548 266.366H275.86C275.752 266.366 275.666 266.278 275.666 266.17C275.666 266.062 275.752 265.976 275.86 265.976H280.548C280.656 265.976 280.744 266.062 280.744 266.17C280.744 266.278 280.656 266.366 280.548 266.366ZM289.924 266.366H285.236C285.128 266.366 285.04 266.278 285.04 266.17C285.04 266.062 285.128 265.976 285.236 265.976H289.924C290.032 265.976 290.118 266.062 290.118 266.17C290.118 266.278 290.032 266.366 289.924 266.366ZM299.298 266.366H294.61C294.504 266.366 294.416 266.278 294.416 266.17C294.416 266.062 294.504 265.976 294.61 265.976H299.298C299.406 265.976 299.494 266.062 299.494 266.17C299.494 266.278 299.406 266.366 299.298 266.366ZM308.674 266.366H303.986C303.878 266.366 303.79 266.278 303.79 266.17C303.79 266.062 303.878 265.976 303.986 265.976H308.674C308.782 265.976 308.868 266.062 308.868 266.17C308.868 266.278 308.782 266.366 308.674 266.366ZM318.048 266.366H313.36C313.254 266.366 313.166 266.278 313.166 266.17C313.166 266.062 313.254 265.976 313.36 265.976H318.048C318.156 265.976 318.244 266.062 318.244 266.17C318.244 266.278 318.156 266.366 318.048 266.366ZM327.424 266.366H322.736C322.628 266.366 322.54 266.278 322.54 266.17C322.54 266.062 322.628 265.976 322.736 265.976H327.424C327.532 265.976 327.618 266.062 327.618 266.17C327.618 266.278 327.532 266.366 327.424 266.366ZM336.798 266.366H332.11C332.004 266.366 331.916 266.278 331.916 266.17C331.916 266.062 332.004 265.976 332.11 265.976H336.798C336.906 265.976 336.994 266.062 336.994 266.17C336.994 266.278 336.906 266.366 336.798 266.366ZM345.082 266.366H341.486C341.378 266.366 341.29 266.278 341.29 266.17C341.29 266.062 341.378 265.976 341.486 265.976H344.71L344.76 264.886C344.766 264.778 344.86 264.686 344.964 264.7C345.072 264.704 345.156 264.796 345.15 264.904L345.082 266.366Z" fill="#D6E6F1"/>
<path d="M245.944 163.18C245.944 163.18 248.72 191.306 247.528 200.876L240.67 273.532H299.85C299.85 273.532 296.53 211.618 296.53 206.93C296.53 202.242 295.554 163.18 295.554 163.18L286.276 158.492L262.936 158.2L245.944 163.18Z" fill="url(#paint2_linear_4_1300)"/>
<path d="M261.96 158.64L250.28 161.91C250.28 161.91 254.956 185.26 257.746 188.05C260.536 190.84 257.272 192.932 259.616 195.276C261.96 197.62 274.948 215.232 274.948 215.232L261.96 158.64Z" fill="#EAF1F7"/>
<path d="M286.862 159.404L274.948 215.232C274.948 215.232 287.616 192.844 288.7 191.762C289.782 190.678 288.7 186.096 288.7 183.948C288.7 181.8 295.436 163.122 295.436 163.122C295.436 163.122 289.286 159.404 286.862 159.404Z" fill="#EAF1F7"/>
<path d="M262.936 158.2L250.436 159.47C250.436 159.47 254.956 182.46 257.746 185.25C260.536 188.042 257.272 190.134 259.616 192.478C261.96 194.822 274.948 215.232 274.948 215.232L262.936 158.2Z" fill="#EAF1F7"/>
<path d="M286.276 158.492L274.948 215.232C274.948 215.232 287.616 190.046 288.7 188.962C289.782 187.878 288.7 183.298 288.7 181.15C288.7 179 295.554 161.228 295.554 161.228C295.554 161.228 288.7 158.492 286.276 158.492Z" fill="#EAF1F7"/>
<path d="M273.288 273.532L274.948 215.232L274.606 273.532H273.288Z" fill="#7696B5"/>
<path d="M235.006 286.032H279.538V281.344H235.006V286.032Z" fill="#669DC5"/>
<path d="M275.728 307.68H238.816L237.644 286.032H276.902L275.728 307.68Z" fill="#EAF1F7"/>
<path d="M243.67 307.68H238.816L237.644 286.032H276.902L276.696 289.812C266.458 290.592 250.212 292.638 246.92 297.842C245.1 300.722 244.148 304.312 243.67 307.68Z" fill="#669DC5"/>
<path d="M309.03 319.398H208.64C208.64 312.926 213.886 307.68 220.358 307.68H297.312C303.784 307.68 309.03 312.926 309.03 319.398Z" fill="#D6E6F1"/>
<path d="M200.762 166.102L197.352 153.892L182.363 157.736C182.363 157.736 184.5 164.386 185.992 165.3C187.09 165.972 190.397 167.994 192.069 169.018L205.47 195.6L215.112 183.688L200.762 166.102Z" fill="#C56666"/>
<path d="M271.626 97.722C271.626 97.722 283.05 96.324 287.934 98.654C292.816 100.982 302.386 110.392 299.848 128.652C299.848 128.652 301.898 129.304 302.484 132.1C303.07 134.894 303.12 139.878 298.286 144.49C293.452 149.102 285.298 148.59 281.098 148.59C276.898 148.59 265.082 145.048 262.054 138.528C259.028 132.006 271.626 97.722 271.626 97.722Z" fill="#1E1E1E"/>
<path d="M277.16 100.376C274.096 100.088 271.542 101.496 269.49 103.806C266.898 111.436 262.75 124.492 261.788 132.546C262.214 135.786 263.282 139.002 264.824 141.544C265.092 141.988 265.374 142.41 265.668 142.812C269.718 145.998 275.676 147.922 279.336 148.444C290.726 146.914 293.93 136.396 293.646 124.802C293.57 121.678 295.804 111.952 290.968 105.668C287.72 101.446 282.124 99.888 277.16 100.376Z" fill="#1E1E1E"/>
<path d="M265.768 140.328C265.768 140.328 266.354 148.238 265.768 151.852C265.182 155.466 262.936 158.2 262.936 158.2L274.948 215.232L286.276 158.492C286.276 158.492 283.464 156.77 282.664 151.852C281.862 146.936 281.882 134.274 281.882 134.274L265.768 140.328Z" fill="#F1D6D6"/>
<path d="M274.948 215.232L283.766 171.064C277.042 171.796 270.372 170.95 265.406 169.93L274.948 215.232Z" fill="#1E1E1E"/>
<path d="M283.766 171.064C283.704 171.072 283.642 171.078 283.578 171.084C281.37 180.108 276.326 200.112 274.606 201.832C272.954 203.484 267.914 181.444 265.418 169.932L265.406 169.93L274.948 215.232L283.766 171.064Z" fill="#1E1E1E"/>
<path d="M282.454 150.234C282.4 149.724 282.352 149.174 282.308 148.598C282.352 149.174 282.4 149.724 282.454 150.234Z" fill="url(#paint3_linear_4_1300)"/>
<path d="M282.308 148.598C282.288 148.34 282.27 148.076 282.252 147.808C282.27 148.076 282.288 148.34 282.308 148.598Z" fill="#1E1E1E"/>
<path d="M282.252 147.808C282.206 147.132 282.166 146.426 282.132 145.708C282.168 146.426 282.206 147.132 282.252 147.808ZM268.304 139.376L269.452 138.944L268.304 139.376Z" fill="#1E1E1E"/>
<path d="M279.194 150.724C273.144 150.724 269.8 145.204 268.304 139.376L269.452 138.944C271.272 142.9 274.372 146.068 279.194 146.068C280.11 146.068 281.09 145.954 282.132 145.708C282.166 146.426 282.206 147.132 282.252 147.808C282.27 148.076 282.288 148.34 282.308 148.598C282.352 149.174 282.4 149.724 282.454 150.234C282.36 150.262 282.266 150.292 282.17 150.316C281.112 150.594 280.122 150.724 279.194 150.724Z" fill="#C56666"/>
<path d="M279.34 101.95C279.34 101.95 286.274 100.876 290.082 106.442C293.89 112.008 292.132 121.384 292.132 123.728C292.132 126.072 293.256 143.064 282.17 145.7C271.086 148.336 267.328 136.228 267.328 128.902C267.328 121.578 270.05 102.866 279.34 101.95Z" fill="#F1D6D6"/>
<path d="M271.608 108.642C271.632 108.59 271.656 108.538 271.68 108.486C271.682 108.484 271.686 108.482 271.69 108.48C271.662 108.534 271.634 108.588 271.608 108.642Z" fill="#1E1E1E"/>
<path d="M292.526 117.628C287.094 117.628 283.788 113.91 282.222 108.494C278.33 109.108 274.43 110.006 270.592 111.162C270.906 110.288 271.246 109.444 271.608 108.642C271.634 108.588 271.662 108.534 271.69 108.48C273.814 107.19 275.992 106.688 278.18 106.688C282.86 106.688 287.586 108.98 291.914 110.752C292.468 113.032 292.578 115.464 292.526 117.628Z" fill="#C56666"/>
<path d="M196.97 161.25C196.345 161.4 195.143 161.832 194.236 162.482C193.974 161.792 192.672 158.28 192.886 156.88L192.888 156.878C193.835 155.878 195.904 155.848 196.916 156.282C197.051 156.406 197.148 156.568 197.199 156.776C197.519 158.104 198.204 160.952 196.97 161.25ZM198.528 154.646C198.394 154.482 187.301 143.924 185.107 144.584C181.457 145.536 189.569 151.59 190.448 152.726C190.886 153.292 191.279 154.006 191.618 154.682C191.33 154.764 191.061 154.838 190.82 154.896C188.731 155.398 183.156 156.44 182.363 157.736C182.363 157.736 182.213 165.038 184.131 165.078C186.049 165.118 187.989 164.418 190.048 164.624C191.078 164.728 192.136 164.222 192.937 163.69C193.066 163.604 193.187 163.518 193.301 163.434C193.035 163.882 192.967 164.386 193.237 164.936C194.221 166.934 201.024 163.488 201.32 162.212C201.616 160.934 200.098 156.58 198.528 154.646Z" fill="#F1D6D6"/>
<path d="M197.702 182.126C197.702 182.126 213.522 222.75 219.578 225.876C225.632 229 247.822 195.208 247.822 195.208C247.822 195.208 248.678 163.18 245.944 163.18C243.21 163.18 231.968 176.552 228.734 184.594C225.444 192.776 225.56 196.912 221.14 188.962C216.624 180.84 208.688 169.93 208.688 169.93C204.132 174.486 197.702 182.126 197.702 182.126Z" fill="#EAF1F7"/>
<path d="M287.934 98.728C287.934 98.728 284.028 98.238 281.684 100.094C279.34 101.95 274.164 102.828 271.136 117.184C268.11 131.54 270.55 133.2 270.55 133.2C270.55 133.2 273.768 139.84 269.62 144.918C265.472 149.996 257.334 148.078 252.778 145.406C246.15 141.522 247.33 128.048 250.12 119.232C250.508 118.002 250.7 117.272 251.156 116.242C252.032 114.262 252.322 111.98 253.588 109.896C257.69 103.148 265.158 96.982 278.364 97.314C278.364 97.314 284.32 96.97 287.934 98.728Z" fill="#1E1E1E"/>
<path d="M251.448 115.154C250.624 117.628 250.742 117.266 250.12 119.232C249.986 119.652 249.858 120.082 249.734 120.52C252.332 119.02 252.842 118.608 255.808 117.09C261.256 114.312 267.082 112.078 273.022 110.468C273.14 110.148 273.262 109.84 273.382 109.542C265.758 110.258 258.19 111.636 251.448 115.154Z" fill="#1E1E1E"/>
<path d="M253.108 110.146C267.596 102.57 277.334 101.886 293.942 102.968V106.97C279.998 107.02 266.222 110.81 254.64 116.714C251.526 118.308 249.858 119.396 249.842 119.404L253.108 110.146Z" fill="#669DC5"/>
<path d="M304.4 105.466C304.4 111.946 299.488 117.2 293.426 117.2C287.366 117.2 282.454 111.946 282.454 105.466C282.454 98.9859 287.366 93.734 293.426 93.734C299.488 93.734 304.4 98.9859 304.4 105.466Z" fill="#669DC5"/>
<path d="M304.4 105.466C304.4 111.946 299.636 117.2 293.762 117.2C287.886 117.2 283.122 111.946 283.122 105.466C283.122 98.9859 287.886 93.734 293.762 93.734C299.636 93.734 304.4 98.9859 304.4 105.466Z" fill="#EAE9F3"/>
<path d="M304.4 105.466C304.4 111.946 299.488 117.2 293.426 117.2C287.366 117.2 282.454 111.946 282.454 105.466C282.454 98.9859 287.366 93.734 293.426 93.734C299.488 93.734 304.4 98.9859 304.4 105.466Z" fill="#D6E6F1"/>
<path d="M304.4 105.466C304.4 111.946 299.636 117.2 293.762 117.2C287.886 117.2 283.122 111.946 283.122 105.466C283.122 98.9859 287.886 93.734 293.762 93.734C299.636 93.734 304.4 98.9859 304.4 105.466Z" fill="#669DC5"/>
<path d="M289.7 103.226C289.7 99.3279 291.426 95.872 294.08 93.738C293.974 93.736 293.868 93.734 293.762 93.734C287.886 93.734 283.122 98.9859 283.122 105.466C283.122 111.946 287.886 117.2 293.762 117.2C296.102 117.2 298.264 116.366 300.02 114.954C294.292 114.768 289.7 109.59 289.7 103.226Z" fill="#EAE9F3"/>
<path d="M295.522 104.97C295.522 105.932 294.814 106.712 293.942 106.712C293.07 106.712 292.362 105.932 292.362 104.97C292.362 104.006 293.07 103.226 293.942 103.226C294.814 103.226 295.522 104.006 295.522 104.97Z" fill="#669DC5"/>
<path d="M170.911 158.688C170.768 158.688 170.623 158.646 170.495 158.558C170.162 158.328 170.078 157.872 170.308 157.538L198.138 117.212C198.368 116.878 198.825 116.794 199.158 117.024C199.491 117.254 199.575 117.712 199.345 118.044L171.516 158.372C171.373 158.578 171.144 158.688 170.911 158.688Z" fill="#669DC5"/>
<path d="M123.163 209.52C122.984 209.52 122.804 209.454 122.662 209.322C122.367 209.044 122.351 208.58 122.628 208.284L168.818 158.904C169.095 158.608 169.559 158.592 169.855 158.868C170.15 159.146 170.166 159.61 169.889 159.906L123.699 209.286C123.554 209.442 123.359 209.52 123.163 209.52Z" fill="#669DC5"/>
<path d="M169.353 160.138C169.205 160.138 169.056 160.094 168.926 160L131.774 133.372C131.445 133.134 131.369 132.676 131.605 132.348C131.841 132.018 132.299 131.942 132.629 132.178L169.781 158.808C170.11 159.044 170.186 159.502 169.95 159.832C169.806 160.032 169.581 160.138 169.353 160.138Z" fill="#669DC5"/>
<path d="M189.169 245.116C188.836 245.116 188.535 244.886 188.456 244.548L168.639 159.572C168.548 159.176 168.793 158.782 169.187 158.69C169.581 158.598 169.976 158.844 170.068 159.238L189.884 244.214C189.976 244.61 189.731 245.004 189.336 245.096C189.28 245.108 189.224 245.116 189.169 245.116Z" fill="#669DC5"/>
<path d="M177.603 159.404C177.603 163.96 173.91 167.654 169.354 167.654C164.797 167.654 161.104 163.96 161.104 159.404C161.104 154.848 164.797 151.154 169.354 151.154C173.91 151.154 177.603 154.848 177.603 159.404Z" fill="#669DC5"/>
<path d="M174.611 158.998C174.611 161.9 172.257 164.254 169.354 164.254C166.45 164.254 164.096 161.9 164.096 158.998C164.096 156.094 166.45 153.74 169.354 153.74C172.257 153.74 174.611 156.094 174.611 158.998Z" fill="#EAF1F7"/>
<path d="M130.553 151.38H95.3783C93.2697 151.38 91.5601 149.672 91.5601 147.562V117.988C91.5601 115.878 93.2697 114.17 95.3783 114.17H130.553C132.661 114.17 134.371 115.878 134.371 117.988V147.562C134.371 149.672 132.661 151.38 130.553 151.38Z" fill="#EAF1F7"/>
<path d="M132.245 114.564C132.497 115.074 132.64 115.648 132.64 116.256V145.832C132.64 147.94 130.93 149.65 128.822 149.65H93.6472C93.0396 149.65 92.4654 149.506 91.9552 149.254C92.5792 150.514 93.8772 151.38 95.3782 151.38H130.553C132.661 151.38 134.371 149.672 134.371 147.562V117.988C134.371 116.486 133.504 115.188 132.245 114.564Z" fill="#669DC5"/>
<path d="M130.553 224.648H95.3783C93.2697 224.648 91.5601 222.938 91.5601 220.83V191.254C91.5601 189.146 93.2697 187.436 95.3783 187.436H130.553C132.661 187.436 134.371 189.146 134.371 191.254V220.83C134.371 222.938 132.661 224.648 130.553 224.648Z" fill="#EAF1F7"/>
<path d="M132.245 187.832C132.497 188.342 132.64 188.916 132.64 189.524V219.098C132.64 221.206 130.93 222.916 128.822 222.916H93.6472C93.0396 222.916 92.4654 222.774 91.9552 222.52C92.5792 223.78 93.8772 224.648 95.3782 224.648H130.553C132.661 224.648 134.371 222.938 134.371 220.83V191.254C134.371 189.754 133.504 188.456 132.245 187.832Z" fill="#669DC5"/>
<path d="M176.646 124.072H217.336C219.588 124.072 221.414 122.246 221.414 119.994V90.94C221.414 88.686 219.588 86.862 217.336 86.862H176.646C174.394 86.862 172.568 88.686 172.568 90.94V119.994C172.568 122.246 174.394 124.072 176.646 124.072Z" fill="#EAF1F7"/>
<path d="M174.994 87.256C174.705 87.766 174.543 88.34 174.543 88.948V118.524C174.543 120.632 176.493 122.342 178.899 122.342H219.032C219.726 122.342 220.38 122.198 220.962 121.946C220.25 123.206 218.77 124.072 217.058 124.072H176.924C174.518 124.072 172.568 122.362 172.568 120.254V90.68C172.568 89.178 173.556 87.88 174.994 87.256Z" fill="#669DC5"/>
<path d="M171.514 231.566H212.204C214.456 231.566 216.282 233.392 216.282 235.644V264.7C216.282 266.952 214.456 268.778 212.204 268.778H171.514C169.262 268.778 167.436 266.952 167.436 264.7V235.644C167.436 233.392 169.262 231.566 171.514 231.566Z" fill="#EAF1F7"/>
<path d="M169.862 268.382C169.573 267.872 169.411 267.298 169.411 266.69V237.116C169.411 235.006 171.361 233.298 173.767 233.298H213.9C214.594 233.298 215.248 233.44 215.83 233.692C215.118 232.432 213.638 231.566 211.926 231.566H171.792C169.386 231.566 167.436 233.276 167.436 235.384V264.96C167.436 266.46 168.424 267.758 169.862 268.382Z" fill="#669DC5"/>
<path d="M107.056 125.324C107.056 126.022 106.491 126.588 105.794 126.588C105.096 126.588 104.531 126.022 104.531 125.324C104.531 124.628 105.096 124.062 105.794 124.062C106.491 124.062 107.056 124.628 107.056 125.324Z" fill="#669DC5"/>
<path d="M121.222 121.776C121.222 122.214 120.867 122.568 120.429 122.568C119.991 122.568 119.635 122.214 119.635 121.776C119.635 121.336 119.991 120.982 120.429 120.982C120.867 120.982 121.222 121.336 121.222 121.776Z" fill="#669DC5"/>
<path d="M112.138 144.568C106.066 144.568 101.127 139.628 101.127 133.558C101.127 130.822 102.131 128.206 103.953 126.19L104.23 125.882L104.435 126.242C104.557 126.458 104.731 126.644 104.938 126.78L105.227 126.97L104.997 127.228C103.45 128.966 102.598 131.214 102.598 133.558C102.598 138.818 106.877 143.098 112.138 143.098C117.133 143.098 121.26 139.26 121.648 134.312C119.814 133.952 118.464 132.334 118.464 130.438V123.43L119.316 122.13L119.574 122.454C119.719 122.636 119.923 122.77 120.147 122.83L120.546 122.938L119.934 123.87V130.438C119.934 131.804 121.046 132.916 122.413 132.916C123.779 132.916 124.891 131.804 124.891 130.438V123.892L124.187 122.942L124.579 122.812C124.799 122.74 124.995 122.594 125.13 122.404L125.368 122.066L126.361 123.406V130.438C126.361 132.358 124.985 133.986 123.121 134.322C122.726 140.088 117.947 144.568 112.138 144.568Z" fill="#669DC5"/>
<path d="M125.031 121.776C125.031 122.214 124.676 122.568 124.237 122.568C123.799 122.568 123.444 122.214 123.444 121.776C123.444 121.336 123.799 120.982 124.237 120.982C124.676 120.982 125.031 121.336 125.031 121.776Z" fill="#669DC5"/>
<path d="M116.686 131.324H113.7V128.338H110.404V131.324H107.417V134.62H110.404V137.606H113.7V134.62H116.686V131.324Z" fill="#669DC5"/>
<path d="M204.364 106.022H203.41L201.436 103.298L199.943 109.444L198.793 98.778L195.704 105.728L194.349 103.264L192.619 106.368L190.263 103.486L189.202 108.732L188.206 99.714L184.817 105.836H176.665C176.46 105.836 176.294 106.002 176.294 106.206C176.294 106.412 176.46 106.578 176.665 106.578H185.611L187.459 103.238L188.871 116.016L190.924 105.866L192.815 108.178L194.342 105.44L195.819 108.124L198.11 102.97L199.508 115.954L201.98 105.778L202.694 106.764H204.86C204.67 106.51 204.506 106.262 204.364 106.022Z" fill="#669DC5"/>
<path d="M211.576 101.034C211.576 101.034 212.842 99.28 215.342 99.28C217.574 99.28 219.11 101.082 219.11 103.178C219.11 105.608 217.014 108.48 211.576 110.978C206.136 108.48 204.042 105.608 204.042 103.178C204.042 101.082 205.578 99.28 207.808 99.28C210.31 99.28 211.576 101.034 211.576 101.034Z" fill="#C56666"/>
<path d="M201.122 256.272C201.026 256.272 200.93 256.266 200.832 256.254L181.447 253.774C180.215 253.616 179.345 252.488 179.502 251.258L180.814 241.008C180.96 239.874 181.927 239.044 183.042 239.044C183.137 239.044 183.233 239.05 183.33 239.064L202.716 241.544C203.948 241.702 204.818 242.828 204.66 244.06L203.348 254.31C203.204 255.444 202.236 256.272 201.122 256.272Z" fill="#EAF1F7"/>
<path d="M189.004 243.002L188.475 241.808C188.322 241.464 187.979 241.24 187.602 241.24H178.656C178.128 241.24 177.701 241.668 177.701 242.196V248.27H177.717V259.72C177.717 260.248 178.144 260.674 178.672 260.674H205.062C205.588 260.674 206.016 260.248 206.016 259.72V244.524C206.016 243.996 205.588 243.57 205.062 243.57H189.877C189.499 243.57 189.157 243.346 189.004 243.002Z" fill="#669DC5"/>
<path d="M197.625 252.312C197.625 255.224 195.265 257.584 192.353 257.584C189.441 257.584 187.081 255.224 187.081 252.312C187.081 249.4 189.441 247.04 192.353 247.04C195.265 247.04 197.625 249.4 197.625 252.312Z" fill="#EAE9F3"/>
<path d="M196.461 250.874H193.814V248.226H190.892V250.874H188.245V253.796H190.892V256.442H193.814V253.796H196.461V250.874Z" fill="#C56666"/>
<path d="M108.261 200.266C108.261 201.714 109.434 202.886 110.882 202.886C112.329 202.886 113.502 201.714 113.502 200.266C113.502 198.818 112.329 197.646 110.882 197.646C109.434 197.646 108.261 198.818 108.261 200.266Z" fill="#669DC5"/>
<path d="M114.873 207.38H118.669V203.726H114.873V207.38Z" fill="#669DC5"/>
<path d="M115.434 208.62H118.108V207.592H115.434V208.62Z" fill="#669DC5"/>
<path d="M114.452 200.694C114.452 199.868 114.2 199.1 113.77 198.462V195.942C114.376 195.942 114.867 195.45 114.867 194.844V192.842H118.674V194.844C118.674 195.45 119.166 195.942 119.772 195.942V202.426C119.772 202.992 119.313 203.45 118.748 203.45H114.794C114.364 203.45 113.996 203.186 113.844 202.81C114.229 202.196 114.452 201.47 114.452 200.694Z" fill="#669DC5"/>
<path d="M113.955 192.842H119.586V191.498H113.955V192.842Z" fill="#669DC5"/>
<path d="M106.474 200.312C106.463 200.438 106.456 200.566 106.456 200.694C106.456 202.61 107.812 204.216 109.615 204.602C109.057 205 108.622 205.54 108.367 206.216C107.927 207.386 108.137 208.704 108.671 209.806C109.309 211.124 110.406 212.174 111.661 212.906L111.187 214.574C104.629 212.712 101.843 205.436 106.474 200.312Z" fill="#669DC5"/>
<path d="M108.137 216.534H113.626V212.85H108.137V216.534Z" fill="#669DC5"/>
<path d="M103.557 218.5H123.931V217.892C123.931 217.142 123.323 216.534 122.574 216.534H104.914C104.165 216.534 103.557 217.142 103.557 217.892V218.5Z" fill="#669DC5"/>
<path d="M111.56 211.73H122.042V209.888H111.56V211.73Z" fill="white"/>
<path d="M295.436 163.122C295.436 163.122 293.424 185.446 296.466 202.448C297.23 206.718 309.022 208.616 315.466 213.466C326.208 221.552 333.694 232.466 335.602 236.802C339.956 234.838 339.93 215.232 337.546 207.444C334.956 202.266 295.436 163.122 295.436 163.122Z" fill="#EAF1F7"/>
<path d="M358.162 191.25L316.614 186.226L290.59 235.81H324.286L358.162 191.25Z" fill="#1E1E1E"/>
<path d="M330.11 228.148L338.976 216.486L330.11 228.148ZM315.872 187.64L316.614 186.226L315.872 187.64Z" fill="#669DC5"/>
<path d="M324.286 235.81H318.006C324.29 226.866 338.792 205.26 336.8 199.098C334.934 193.326 322.368 189.342 315.872 187.64L316.614 186.226L358.162 191.25L338.976 216.486L330.11 228.148L324.286 235.81Z" fill="#1E1E1E"/>
<path d="M315.086 183.97L288.606 234.924L290.59 235.81L316.614 186.226L358.162 191.25L355.63 189.268L315.086 183.97Z" fill="#1E1E1E"/>
<path d="M388.9 182.872L391.226 191.756L398.706 188.86L397.362 180.992L388.9 182.872Z" fill="#F1D6D6"/>
<path d="M355.488 162.736C354.846 161.818 350.464 156.2 349.718 156.722C348.972 157.244 351.666 161.024 352.068 161.598C352.068 161.598 350.53 161.478 349.772 163.206C349.264 164.364 352.458 169.878 353.798 172.068C354.966 171.702 356.692 170.304 356.634 169.098C356.636 166.826 355.982 163.44 355.488 162.736Z" fill="#F1D6D6"/>
<path d="M389.748 186.11L388.9 182.872L391.768 182.234L395.434 181.42C394.886 182.118 394.374 182.732 394.118 183.174C393.094 184.934 391.384 185.822 389.748 186.11Z" fill="#C56666"/>
<path d="M386.712 316.056L385.812 321.146L381.806 321.432L382.49 312.508L386.712 316.056Z" fill="#F1D6D6"/>
<path d="M386.51 320.362C386.51 320.362 382.806 320.428 381.994 319.788C381.184 319.148 380.326 320.386 379.014 322.044C377.704 323.702 372.816 323.502 372.218 324.81C371.766 325.8 386.278 325.508 387.012 325.488C387.528 325.472 386.51 320.362 386.51 320.362Z" fill="#1E1E1E"/>
<path d="M397.59 315.258L396.69 320.35L392.684 320.636L393.366 311.712L397.59 315.258Z" fill="#F1D6D6"/>
<path d="M397.388 319.566C397.388 319.566 393.684 319.632 392.872 318.992C392.062 318.352 391.204 319.588 389.892 321.248C388.582 322.906 383.962 323.148 383.308 324.428C382.656 325.708 397.248 325.502 397.568 325.096C397.89 324.692 397.388 319.566 397.388 319.566Z" fill="#1E1E1E"/>
<path d="M389.106 245.994L389.526 282.43L392.36 317.86L397.676 318.768C397.676 318.768 402.102 256.176 406.682 249.26C411.258 242.352 406.074 230.946 406.052 230.926H406.05L389.106 245.994Z" fill="#1E1E1E"/>
<path d="M404.174 248.016C406.146 245.042 407.6 241.098 407.234 236.608C407.116 235.154 404.782 233.542 404.49 232.314L389.106 245.994L389.526 282.43L391.104 302.164C393.94 285.166 399.212 260.756 400.268 253.764C400.72 253.138 402.226 250.96 404.174 248.016Z" fill="#1E1E1E"/>
<path d="M382.992 228.968C382.992 228.968 380.292 262.216 380.074 273.328C379.852 284.682 381.278 318.74 381.278 318.74L387.536 318.768C387.536 318.768 396.83 263.368 398.38 253.008C398.38 253.008 397.494 254.5 402.076 247.584C406.652 240.678 403.3 230.946 403.278 230.926L395.14 233.962L382.992 228.968Z" fill="#1E1E1E"/>
<path d="M411.206 212.834L405.43 222.528L407.948 228.3C407.948 228.3 423.276 216.242 421.958 212.938C420.848 210.154 405.53 193.708 401.392 189.192C400.642 188.372 399.482 188.082 398.432 188.446L391.328 190.908C391.328 190.908 411.834 210.7 411.206 212.834Z" fill="#C56666"/>
<path d="M385.104 188.336C385.104 188.336 383.282 235.108 378.616 244.592C378.616 244.592 399.79 241.47 409.51 241.472C409.51 241.472 409.28 201.854 404.582 193.066C399.884 184.276 389.674 185.892 385.104 188.336Z" fill="#C56666"/>
<path d="M395.808 205.576C400.342 203.168 401.798 199.84 401.884 195.604C401.948 192.524 391.608 194.134 384.812 194.558C384.686 196.962 384.52 199.928 384.308 203.214C386.918 206.076 392.53 207.318 395.808 205.576Z" fill="#C56666"/>
<path d="M361.192 190.306C361.192 190.306 375.854 202.872 387.542 202.4C399.23 201.928 400.76 199.118 401.764 196.002C402.766 192.886 396.104 188.614 389.424 187.332C382.742 186.05 370.83 186.18 368.998 184.49C367.166 182.8 357.766 170.116 356.974 167.908L351.306 170.32L361.192 190.306Z" fill="#C56666"/>
<path d="M391.94 168.396C391.94 168.396 389.956 169.376 388.268 171.882C386.582 174.388 384.766 175.732 384.766 175.732L385.56 177.01C385.56 177.01 383.754 178.314 383.928 180.298C384.308 184.666 391.064 185.434 394.426 182.896C395.34 182.208 398.174 181.344 399.1 179.788C401.582 175.622 400.852 169.212 391.94 168.396Z" fill="#F1D6D6"/>
<path d="M395.25 177.74C395.25 177.74 393.002 173.58 394.064 170.652C394.064 170.652 391.604 170.604 389.632 169.488C386.072 167.478 390.398 159.99 395.744 165.328C395.744 165.328 395.284 161.708 399.07 162.354C402.858 163 404.24 164.51 403.558 168.106C402.874 171.702 404.444 170.108 405.596 172.208C406.748 174.308 400.678 181.854 397.838 182.132C394.998 182.41 394.998 182.41 394.998 182.41C394.998 182.41 399.052 180.138 397.916 178.42C396.778 176.7 395.25 177.74 395.25 177.74Z" fill="#1E1E1E"/>
<path d="M307.596 218.694C308.352 218.09 314.678 222.02 318.312 224.37C318.318 224.32 318.326 224.272 318.334 224.224C314.914 221.686 308.928 218.658 310.296 217.788C310.998 217.342 326.024 223.396 326.026 223.398C327.608 224.114 327.682 224.182 329.314 224.904C328.926 223.962 324.996 217.56 327.648 217.874L336.424 229.35C337.914 231.792 337.862 233.272 337.492 234.544C337.036 236.11 334.836 240.312 331.25 241.156C327.794 241.97 318.432 236.682 316.966 235.312C315.39 233.956 304.654 224.572 306.37 221.958C306.37 221.958 315.32 230.696 316.27 229.612C316.326 229.362 307.42 223.448 306.724 221.138C306.224 219.484 314.012 224.526 317.424 227.052C314.364 224.542 307.074 219.11 307.596 218.694Z" fill="#F1D6D6"/>
<path d="M144.554 325.342H116.998C110.976 325.342 106.093 320.46 106.093 314.436V244.424C106.093 238.402 110.976 233.52 116.998 233.52H144.554C150.577 233.52 155.459 238.402 155.459 244.424V314.436C155.459 320.46 150.577 325.342 144.554 325.342Z" fill="#669DC5"/>
<path d="M144.554 233.52H143.153C149.176 233.52 154.058 238.402 154.058 244.424V314.436C154.058 320.46 149.176 325.342 143.153 325.342H144.554C150.577 325.342 155.459 320.46 155.459 314.436V244.424C155.459 238.402 150.577 233.52 144.554 233.52Z" fill="#1E1E1E"/>
<path d="M116.998 323.94C111.758 323.94 107.495 319.676 107.495 314.436V244.424C107.495 239.184 111.758 234.922 116.998 234.922H144.554C149.795 234.922 154.058 239.184 154.058 244.424V314.436C154.058 319.676 149.795 323.94 144.554 323.94H116.998Z" fill="#D6E6F1"/>
<path d="M135.814 239.804H126.535C126.252 239.804 126.023 239.574 126.023 239.292C126.023 239.008 126.252 238.78 126.535 238.78H135.814C136.097 238.78 136.326 239.008 136.326 239.292C136.326 239.574 136.097 239.804 135.814 239.804Z" fill="#669DC5"/>
<path d="M136.755 243.21H125.594C125.283 243.21 125.032 242.958 125.032 242.648C125.032 242.338 125.283 242.088 125.594 242.088H136.755C137.066 242.088 137.317 242.338 137.317 242.648C137.317 242.958 137.066 243.21 136.755 243.21Z" fill="#669DC5"/>
<path d="M122.494 242.648C122.494 243.074 122.149 243.42 121.723 243.42C121.297 243.42 120.952 243.074 120.952 242.648C120.952 242.224 121.297 241.878 121.723 241.878C122.149 241.878 122.494 242.224 122.494 242.648Z" fill="#669DC5"/>
<path d="M134.981 317.952C134.981 320.274 133.098 322.156 130.776 322.156C128.454 322.156 126.572 320.274 126.572 317.952C126.572 315.63 128.454 313.748 130.776 313.748C133.098 313.748 134.981 315.63 134.981 317.952Z" fill="#96A1A9"/>
<path d="M134.289 317.952C134.289 320.274 132.407 322.156 130.085 322.156C127.763 322.156 125.881 320.274 125.881 317.952C125.881 315.63 127.763 313.748 130.085 313.748C132.407 313.748 134.289 315.63 134.289 317.952Z" fill="#EAF1F7"/>
<path d="M149.056 311.33H112.329C111.093 311.33 110.091 310.33 110.091 309.094V252.442C110.091 251.206 111.093 250.204 112.329 250.204H149.056C150.292 250.204 151.293 251.206 151.293 252.442V309.094C151.293 310.33 150.292 311.33 149.056 311.33Z" fill="#D6E6F1"/>
<path d="M111.026 309.01V252.526C111.026 251.848 111.574 251.3 112.251 251.3H149.133C149.81 251.3 150.359 251.848 150.359 252.526V309.01C150.359 309.686 149.81 310.236 149.133 310.236H112.251C111.574 310.236 111.026 309.686 111.026 309.01Z" fill="white"/>
<path d="M149.227 251.3H112.157C111.533 251.3 111.026 251.896 111.026 252.628V261.158H150.359V252.628C150.359 251.896 149.851 251.3 149.227 251.3Z" fill="#EAF1F7"/>
<path d="M142.573 264.476H120.213V262.972H142.573V264.476Z" fill="#669DC5"/>
<path d="M114.942 263.724L117.055 265.154V262.294L114.942 263.724Z" fill="#669DC5"/>
<path d="M146.298 263.724L144.186 265.154V262.294L146.298 263.724Z" fill="#669DC5"/>
<path d="M123.772 258.42H114.061C113.055 258.42 112.24 257.606 112.24 256.6V255.64C112.24 254.634 113.055 253.82 114.061 253.82H123.772C124.778 253.82 125.594 254.634 125.594 255.64V256.6C125.594 257.606 124.778 258.42 123.772 258.42Z" fill="#669DC5"/>
<path d="M147.48 258.42H145.116C144.6 258.42 144.181 258.002 144.181 257.484V254.756C144.181 254.238 144.6 253.82 145.116 253.82H147.48C147.997 253.82 148.416 254.238 148.416 254.756V257.484C148.416 258.002 147.997 258.42 147.48 258.42Z" fill="#669DC5"/>
<path d="M146.637 257.558H145.96V254.572H146.637V257.558Z" fill="white"/>
<path d="M147.571 255.668V256.462H145.025V255.668H147.571Z" fill="white"/>
<path d="M112.988 308.166H117.338V270.546H112.988V308.166Z" fill="#EAF1F7"/>
<path d="M118.208 308.166H122.559V270.546H118.208V308.166Z" fill="#EAF1F7"/>
<path d="M123.47 308.166H127.82V270.546H123.47V308.166Z" fill="#EAF1F7"/>
<path d="M128.731 308.166H133.081V270.546H128.731V308.166Z" fill="#EAF1F7"/>
<path d="M133.992 308.166H138.342V270.546H133.992V308.166Z" fill="#EAF1F7"/>
<path d="M139.253 308.166H143.603V270.546H139.253V308.166Z" fill="#EAF1F7"/>
<path d="M144.514 308.166H148.864V270.546H144.514V308.166Z" fill="#EAF1F7"/>
<path d="M117.338 266.232H112.988V269.09H117.338V266.232Z" fill="#669DC5"/>
<path d="M122.559 266.232H118.208V269.09H122.559V266.232Z" fill="#669DC5"/>
<path d="M127.82 266.232H123.47V269.09H127.82V266.232Z" fill="#669DC5"/>
<path d="M133.081 266.232H128.731V269.09H133.081V266.232Z" fill="#669DC5"/>
<path d="M138.342 266.232H133.992V269.09H138.342V266.232Z" fill="#669DC5"/>
<path d="M143.603 266.232H139.253V269.09H143.603V266.232Z" fill="#C56666"/>
<path d="M148.864 266.232H144.514V269.09H148.864V266.232Z" fill="#C56666"/>
<path d="M149.306 275.816H112.24V274.882H149.306V275.816Z" fill="white"/>
<path d="M149.306 281.43H112.24V280.496H149.306V281.43Z" fill="white"/>
<path d="M149.306 287.044H112.24V286.11H149.306V287.044Z" fill="white"/>
<path d="M149.306 292.658H112.24V291.724H149.306V292.658Z" fill="white"/>
<path d="M149.306 298.272H112.24V297.338H149.306V298.272Z" fill="white"/>
<path d="M149.225 303.886H112.159V302.952H149.225V303.886Z" fill="white"/>
<path d="M130.197 281.774L126.628 280.238C126.755 280.394 131.224 285.864 131.1 285.712C132.001 283.692 133.994 279.22 134.919 277.144L130.197 281.774Z" fill="#C56666"/>
</g>
<defs>
<linearGradient id="paint0_linear_4_1300" x1="260.422" y1="300.688" x2="249.876" y2="138.392" gradientUnits="userSpaceOnUse">
<stop stop-color="#669DC5"/>
<stop offset="1" stop-color="#EAF1F7"/>
</linearGradient>
<linearGradient id="paint1_linear_4_1300" x1="257.678" y1="292.604" x2="251.258" y2="193.805" gradientUnits="userSpaceOnUse">
<stop stop-color="#669DC5"/>
<stop offset="1" stop-color="#EAF1F7"/>
</linearGradient>
<linearGradient id="paint2_linear_4_1300" x1="270.272" y1="272.954" x2="272.616" y2="162.016" gradientUnits="userSpaceOnUse">
<stop stop-color="#669DC5"/>
<stop offset="1" stop-color="#D6E6F1"/>
</linearGradient>
<linearGradient id="paint3_linear_4_1300" x1="260.423" y1="300.688" x2="249.876" y2="138.392" gradientUnits="userSpaceOnUse">
<stop stop-color="#669DC5"/>
<stop offset="1" stop-color="#96A1A9"/>
</linearGradient>
<clipPath id="clip0_4_1300">
<rect width="500" height="400" fill="white"/>
</clipPath>
</defs>
</svg>
